<svg xmlns="http://www.w3.org/2000/svg" xmlns:xlink="http://www.w3.org/1999/xlink" width="40" zoomAndPan="magnify" viewBox="0 0 30 30.000001" height="40" preserveAspectRatio="xMidYMid meet" version="1.0"><defs><clipPath id="efb609b3e3"><path d="M 0.484375 1.652344 L 29.515625 1.652344 L 29.515625 27.054688 L 0.484375 27.054688 Z M 0.484375 1.652344 " clip-rule="nonzero"/></clipPath></defs><g clip-path="url(#efb609b3e3)"><path fill="#000000" d="M 15 27.050781 L 14.691406 26.847656 C 14.65625 26.824219 11.121094 24.4375 7.636719 21.140625 C 5.582031 19.191406 3.9375 17.308594 2.753906 15.542969 C 1.25 13.285156 0.484375 11.191406 0.484375 9.332031 C 0.484375 5.101562 3.972656 1.652344 8.257812 1.652344 C 9.851562 1.652344 11.386719 2.136719 12.699219 3.050781 C 13.652344 3.71875 14.429688 4.566406 15 5.542969 C 15.570312 4.5625 16.347656 3.710938 17.300781 3.050781 C 18.613281 2.136719 20.148438 1.652344 21.742188 1.652344 C 26.027344 1.652344 29.515625 5.101562 29.515625 9.332031 L 29.515625 9.335938 C 29.5 11.183594 28.726562 13.261719 27.214844 15.515625 C 26.03125 17.28125 24.394531 19.160156 22.339844 21.117188 C 18.859375 24.425781 15.34375 26.824219 15.308594 26.847656 Z M 8.257812 2.726562 C 4.570312 2.726562 1.570312 5.691406 1.570312 9.332031 C 1.570312 10.976562 2.273438 12.863281 3.660156 14.941406 C 4.792969 16.636719 6.382812 18.460938 8.378906 20.355469 C 11.207031 23.03125 14.078125 25.101562 15 25.746094 C 15.921875 25.097656 18.773438 23.015625 21.597656 20.332031 C 23.585938 18.433594 25.171875 16.613281 26.3125 14.917969 C 27.699219 12.839844 28.414062 10.964844 28.425781 9.332031 C 28.425781 5.691406 25.421875 2.730469 21.734375 2.730469 C 19 2.730469 16.5 4.441406 15.5 6.988281 L 14.996094 8.28125 L 14.496094 6.988281 C 13.496094 4.441406 10.992188 2.726562 8.257812 2.726562 Z M 8.257812 2.726562 " fill-opacity="1" fill-rule="nonzero"/></g></svg>